<?xml version="1.0" standalone="no"?>
<!DOCTYPE svg PUBLIC "-//W3C//DTD SVG 20010904//EN"
 "http://www.w3.org/TR/2001/REC-SVG-20010904/DTD/svg10.dtd">
<svg version="1.0" xmlns="http://www.w3.org/2000/svg"
 width="512.000000pt" height="512.000000pt" viewBox="0 0 512.000000 512.000000"
 preserveAspectRatio="xMidYMid meet">
<metadata>
Created by potrace 1.11, written by Peter Selinger 2001-2013
</metadata>
<g transform="translate(0.000000,512.000000) scale(0.100000,-0.100000)"
fill="#000000" stroke="none">
<path d="M392 2538 l3 -1633 160 0 160 0 3 1195 3 1195 50 -120 c28 -66 255
-615 506 -1220 250 -605 456 -1101 457 -1102 2 -2 159 354 351 790 192 435
386 878 432 982 47 105 132 298 190 430 58 132 110 244 115 250 4 5 8 -534 8
-1198 l0 -1207 1005 0 1005 0 0 160 0 160 -815 0 -815 0 0 610 0 610 515 0
515 0 0 155 0 155 -515 0 -515 0 0 555 0 555 765 0 765 0 0 155 0 155 -935 0
-935 0 -26 -57 c-14 -32 -247 -569 -519 -1193 -272 -624 -509 -1170 -528
-1213 l-34 -78 -97 223 c-53 123 -298 693 -544 1268 l-448 1045 -142 3 -142 3
2 -1633z"/>
</g>
</svg>
